<svg xmlns="http://www.w3.org/2000/svg" xmlns:inkscape="http://www.inkscape.org/namespaces/inkscape" xmlns:sodipodi="http://sodipodi.sourceforge.net/DTD/sodipodi-0.dtd" viewBox="0 0 500 110">
  <style>
    @import url('https://fonts.googleapis.com/css2?family=Montserrat:wght@500;900&amp;display=swap');
.logo-text { font-family: 'Montserrat', sans-serif; font-weight: 900; }
.sub-text { font-family: 'Montserrat', sans-serif; font-weight: 500; letter-spacing: 0.3em; }
.slogan-text { font-family: 'Montserrat', sans-serif; font-weight: 500; letter-spacing: 0.15em; }

  </style>
  <defs>
    
  </defs>
  
    <g transform="translate(10, 10)">
      <g transform="translate(0, -5) scale(0.9)">
        
    <g transform="translate(10, 10) scale(0.8)">
      <path d="M 45,5 L 15,25 L 15,65 L 45,85" fill="none" stroke="#FFFFFF" stroke-width="12" stroke-linecap="square" stroke-linejoin="miter" />
      <path d="M 55,5 L 85,25 L 85,65 L 55,85" fill="none" stroke="#7AC943" stroke-width="12" stroke-linecap="square" stroke-linejoin="miter" />
      <g transform="translate(30, 32)">
        <rect x="0" y="0" width="3" height="26" fill="#FFFFFF" />
        <rect x="5" y="0" width="2" height="26" fill="#FFFFFF" />
        <rect x="9" y="0" width="4" height="26" fill="#FFFFFF" />
        <rect x="15" y="0" width="2" height="26" fill="#FFFFFF" />
        <rect x="19" y="0" width="3" height="26" fill="#FFFFFF" />
        <path d="M 28,6 A 10,10 0 0,1 28,20" fill="none" stroke="#FFFFFF" stroke-width="2.5" stroke-linecap="round" />
        <path d="M 33,2 A 16,16 0 0,1 33,24" fill="none" stroke="#FFFFFF" stroke-width="2.5" stroke-linecap="round" />
      </g>
    </g>
    
      </g>
      <line x1="110" y1="5" x2="110" y2="90" stroke="#FFFFFF" stroke-width="2" />
      <text x="130" y="45" class="logo-text" font-size="44" fill="#FFFFFF">ETARP</text>
      <text x="130" y="65" class="sub-text" font-size="14" fill="#FFFFFF">AUTOMAÇÃO</text>
      <text x="130" y="85" class="slogan-text" font-size="10" fill="#FFFFFF">CONECTANDO DADOS. IMPULSIONANDO RESULTADOS.</text>
    </g>
    
</svg>