<svg xmlns="http://www.w3.org/2000/svg" viewBox="0 0 120 120">
  <style>
    @import url('https://fonts.googleapis.com/css2?family=Montserrat:wght@500;900&amp;display=swap');
.logo-text { font-family: 'Montserrat', sans-serif; font-weight: 900; }
.sub-text { font-family: 'Montserrat', sans-serif; font-weight: 500; letter-spacing: 0.3em; }
.slogan-text { font-family: 'Montserrat', sans-serif; font-weight: 500; letter-spacing: 0.15em; }

  </style>
  <defs>
    
  </defs>
  
    <rect x="0" y="0" width="120" height="120" rx="24" fill="#0D2B4E" />
    <g transform="translate(10, 10)">
      
    <g transform="translate(10, 10) scale(0.8)">
      <path d="M 45,5 L 15,25 L 15,65 L 45,85" fill="none" stroke="#FFFFFF" stroke-width="12" stroke-linecap="square" stroke-linejoin="miter" />
      <path d="M 55,5 L 85,25 L 85,65 L 55,85" fill="none" stroke="#7AC943" stroke-width="12" stroke-linecap="square" stroke-linejoin="miter" />
      <g transform="translate(30, 32)">
        <rect x="0" y="0" width="3" height="26" fill="#FFFFFF" />
        <rect x="5" y="0" width="2" height="26" fill="#FFFFFF" />
        <rect x="9" y="0" width="4" height="26" fill="#FFFFFF" />
        <rect x="15" y="0" width="2" height="26" fill="#FFFFFF" />
        <rect x="19" y="0" width="3" height="26" fill="#FFFFFF" />
        <path d="M 28,6 A 10,10 0 0,1 28,20" fill="none" stroke="#FFFFFF" stroke-width="2.5" stroke-linecap="round" />
        <path d="M 33,2 A 16,16 0 0,1 33,24" fill="none" stroke="#FFFFFF" stroke-width="2.5" stroke-linecap="round" />
      </g>
    </g>
    
    </g>
    
</svg>